<?xml version="1.0" ?><!DOCTYPE svg  PUBLIC '-//W3C//DTD SVG 1.1//EN'  'http://www.w3.org/Graphics/SVG/1.1/DTD/svg11.dtd'><svg height="512px" style="enable-background:new 0 0 512 512;" version="1.1" viewBox="0 0 512 512" width="512px" xml:space="preserve" xmlns="http://www.w3.org/2000/svg" xmlns:xlink="http://www.w3.org/1999/xlink"><g id="_x31_66_x2C__Heart_x2C__Love_x2C__Like_x2C__Twitter"><g id="XMLID_5035_"><g id="XMLID_6741_"><g><g><path d="M365.4,60.63c60.56,0,109.6,49.03,109.6,109.47c0,109.47-109.6,171.8-219.06,281.27       C146.47,341.9,37,279.57,37,170.1c0-60.44,49.04-109.47,109.47-109.47c54.73,0,82.1,27.37,109.47,82.1       C283.3,88,310.67,60.63,365.4,60.63z" style="fill:#FF7979;"/></g></g><g><g><path d="M255.94,461.37c-2.652,0-5.196-1.054-7.071-2.929c-26.654-26.654-53.027-50.242-78.533-73.054       c-38.323-34.275-74.521-66.65-100.385-100.342C40.648,246.874,27,210.35,27,170.1c0-65.876,53.594-119.47,119.47-119.47       c55.358,0,84.608,26.631,109.468,70.721C280.791,77.26,310.037,50.63,365.4,50.63c65.947,0,119.6,53.594,119.6,119.47       c0,40.229-13.648,76.739-42.954,114.897c-25.863,33.676-62.054,66.03-100.369,100.284       c-25.551,22.844-51.972,46.464-78.665,73.16C261.136,460.316,258.593,461.37,255.94,461.37z M146.47,70.63       C91.622,70.63,47,115.252,47,170.1c0,78.147,60.312,132.088,136.669,200.38c23.465,20.987,47.66,42.626,72.271,66.81       c24.653-24.226,48.896-45.899,72.407-66.919C404.695,302.115,465,248.203,465,170.1c0-54.848-44.681-99.47-99.6-99.47       c-46.532,0-71.896,19.322-100.516,76.572c-1.694,3.388-5.156,5.528-8.944,5.528c-3.788,0-7.251-2.14-8.945-5.527       C218.365,89.952,192.999,70.63,146.47,70.63z"/></g></g></g></g></g><g id="Layer_1"/></svg>